<svg viewBox="0 0 74 82" version="1.1" xmlns="http://www.w3.org/2000/svg" xmlns:xlink="http://www.w3.org/1999/xlink">
    <title>noun_Bomb_1535785</title>
    <g id="Page-1" stroke="none" stroke-width="1" fill="none" fill-rule="evenodd">
        <g id="noun_Bomb_1535785" fill="#ffffff" fill-rule="nonzero">
            <g id="Group">
                <path d="M49.349,14.261 C49.805,14.65 50.366,14.838 50.92,14.838 C51.604,14.838 52.286,14.548 52.767,13.984 C53.633,12.966 53.509,11.436 52.492,10.567 L49.065,7.651 C48.047,6.784 46.518,6.903 45.648,7.925 C44.78,8.945 44.904,10.474 45.921,11.342 L49.349,14.261 Z" id="Path"></path>
                <path d="M53.772,7.926 C53.963,9.119 54.994,9.966 56.163,9.966 C56.291,9.966 56.419,9.959 56.549,9.937 C57.872,9.724 58.772,8.483 58.558,7.16 L57.846,2.717 C57.633,1.393 56.383,0.488 55.07,0.707 C53.747,0.918 52.847,2.162 53.061,3.484 L53.772,7.926 Z" id="Path"></path>
                <path d="M61.553,10.762 C62,11.124 62.54,11.3 63.072,11.3 C63.78,11.3 64.48,10.991 64.961,10.398 L67.787,6.897 C68.628,5.856 68.464,4.329 67.423,3.489 C66.379,2.647 64.855,2.81 64.015,3.852 L61.189,7.355 C60.348,8.396 60.512,9.92 61.553,10.762 Z" id="Path"></path>
                <path d="M67.486,21.33 L63.928,18.575 C62.868,17.754 61.349,17.948 60.528,19.007 C59.71,20.065 59.903,21.587 60.961,22.406 L64.519,25.16 C64.961,25.503 65.483,25.67 66.001,25.67 C66.725,25.67 67.441,25.347 67.92,24.731 C68.739,23.671 68.544,22.147 67.486,21.33 Z" id="Path"></path>
                <path d="M70.803,12.312 L66.306,12.267 C65.009,12.273 63.875,13.331 63.858,14.667 C63.844,16.006 64.92,17.102 66.258,17.115 L70.756,17.16 C70.763,17.16 70.773,17.16 70.779,17.16 C72.107,17.16 73.189,16.091 73.203,14.761 C73.218,13.421 72.143,12.325 70.803,12.312 Z" id="Path"></path>
                <path d="M58.525,14.584 C57.538,13.688 56.004,13.758 55.102,14.749 L49.272,21.17 L45.732,18.717 C43.987,17.51 41.661,17.576 39.985,18.881 L34.491,23.173 C33.039,22.95 31.552,22.834 30.038,22.834 C13.915,22.834 0.797,35.956 0.797,52.082 C0.797,68.207 13.915,81.327 30.038,81.327 C46.165,81.327 59.282,68.207 59.282,52.082 C59.282,46.794 57.865,41.834 55.4,37.549 L57.545,31.162 C58.234,29.117 57.486,26.864 55.714,25.634 L53.292,23.955 L58.691,18.009 C59.591,17.018 59.518,15.484 58.525,14.584 Z M30.038,34.507 C30.038,34.507 30.034,34.507 30.029,34.507 C25.542,34.507 21.245,36.597 18.244,40.243 C15.034,44.142 13.687,49.375 14.643,54.237 C14.901,55.55 14.044,56.825 12.731,57.085 C12.575,57.115 12.417,57.13 12.262,57.13 C11.126,57.13 10.114,56.328 9.885,55.173 C8.636,48.81 10.317,42.244 14.501,37.161 C18.425,32.393 24.084,29.659 30.028,29.659 C30.033,29.659 30.036,29.659 30.04,29.659 C31.377,29.66 32.4620007,30.745 32.4620007,32.083 C32.463,33.423 31.376,34.507 30.038,34.507 Z" id="Shape"></path>
            </g>
        </g>
    </g>
</svg>